<?xml version="1.0" standalone="no"?>
<!DOCTYPE svg PUBLIC "-//W3C//DTD SVG 20010904//EN"
 "http://www.w3.org/TR/2001/REC-SVG-20010904/DTD/svg10.dtd">
<svg version="1.0" xmlns="http://www.w3.org/2000/svg"
 width="700.000000pt" height="700.000000pt" viewBox="0 0 700.000000 700.000000"
 preserveAspectRatio="xMidYMid meet">
<metadata>
Created by potrace 1.14, written by Peter Selinger 2001-2017
</metadata>
<g transform="translate(0.000000,700.000000) scale(0.100000,-0.100000)"
fill="#000000" stroke="none">
<path d="M0 3500 l0 -3500 3500 0 3500 0 0 3500 0 3500 -3500 0 -3500 0 0
-3500z m2413 1890 c62 -23 115 -74 151 -147 l25 -51 -5 -1604 c-3 -881 -9
-1646 -14 -1699 -11 -113 -34 -172 -86 -224 -62 -62 -111 -79 -247 -83 l-117
-4 -53 39 c-66 50 -103 104 -127 184 -19 62 -20 111 -20 1710 l0 1646 21 49
c47 107 108 169 190 193 64 18 223 13 282 -9z m2332 -13 c61 -30 158 -130 185
-189 32 -71 27 -159 -14 -243 -29 -62 -70 -108 -347 -395 -450 -466 -1365
-1402 -1588 -1625 l-191 -190 0 475 1 475 806 820 c810 824 853 864 948 895
50 16 145 5 200 -23z m-345 -2492 c281 -346 553 -681 604 -743 105 -127 121
-164 121 -277 0 -59 -5 -78 -28 -118 -33 -56 -108 -118 -171 -142 -65 -25
-163 -17 -243 19 -53 24 -73 42 -147 132 -47 57 -86 106 -86 109 0 4 -954
1158 -1002 1211 -19 21 -18 22 204 232 123 116 226 210 230 209 4 -1 237 -285
518 -632z"/>
</g>
</svg>
