<?xml version="1.0" standalone="no"?>
<!DOCTYPE svg PUBLIC "-//W3C//DTD SVG 20010904//EN"
 "http://www.w3.org/TR/2001/REC-SVG-20010904/DTD/svg10.dtd">
<svg version="1.0" xmlns="http://www.w3.org/2000/svg"
 width="700.000000pt" height="700.000000pt" viewBox="0 0 700.000000 700.000000"
 preserveAspectRatio="xMidYMid meet">
<metadata>
Created by potrace 1.14, written by Peter Selinger 2001-2017
</metadata>
<g transform="translate(0.000000,700.000000) scale(0.100000,-0.100000)"
fill="#000000" stroke="none">
<path d="M0 3500 l0 -3500 3500 0 3500 0 0 3500 0 3500 -3500 0 -3500 0 0
-3500z m5195 2366 c53 -25 151 -120 179 -173 47 -93 -4 -232 -132 -354 -158
-151 -1304 -1279 -2074 -2042 l-798 -789 0 351 c0 305 2 351 15 351 16 0 21
36 6 42 -12 4 2504 2541 2554 2575 52 36 122 62 165 62 19 1 58 -10 85 -23z
m-3132 -227 c44 -12 102 -59 124 -102 13 -27 14 -225 8 -1946 -4 -1054 -10
-2001 -14 -2106 -9 -214 -21 -262 -82 -307 -53 -39 -93 -48 -219 -48 l-118 0
-50 45 c-36 33 -57 62 -71 101 -21 55 -21 60 -21 2128 l0 2073 38 59 c41 64
69 87 123 102 46 14 235 14 282 1z m2609 -3485 l1007 -1299 -21 -18 -22 -18
29 3 c36 4 43 -16 44 -123 1 -71 -1 -79 -30 -115 -49 -62 -135 -121 -186 -128
-52 -7 -119 6 -175 35 -39 20 -39 21 -24 45 19 27 11 32 -15 8 -16 -14 -84 69
-970 1183 -524 659 -977 1229 -1008 1266 l-54 68 199 200 c109 109 203 198
209 196 5 -2 463 -588 1017 -1303z"/>
</g>
</svg>
