<svg width="501" height="501" viewBox="0 0 501 501" fill="none" xmlns="http://www.w3.org/2000/svg">
<g clip-path="url(#clip0_1_6)">
<mask id="mask0_1_6" style="mask-type:alpha" maskUnits="userSpaceOnUse" x="0" y="0" width="501" height="501">
<circle cx="250.5" cy="250.5" r="250.5" fill="#72D8FE"/>
</mask>
<g mask="url(#mask0_1_6)">
<circle cx="250.5" cy="250.5" r="250.5" fill="#72D8FE"/>
<path d="M130.785 101.766C126.33 102.37 124.319 104.256 121 110.545V404.648C122.526 410.307 124.008 412.576 127.85 414.891H142.527C150.409 413.397 151.079 407.552 151.334 395.869L152.312 185.168V107.618C150.338 103.707 148.58 102.49 144.484 101.766H130.785Z" fill="white"/>
<path d="M174.394 270.724C174.4 270.702 174.405 270.697 174.408 270.709L359.66 84.3882C367.092 79.3539 370.923 77.9546 376.385 81.2653L383.386 88.1013C387.23 92.5708 387.255 96.1592 381.364 105.58C381.364 105.58 253.21 232.618 172.862 313.391C173.162 296.399 174.553 271.184 174.408 270.709L174.394 270.724Z" fill="white"/>
<path d="M376.115 506.467L221.03 311.168C218.078 308.151 217.507 305.847 218.851 300.404L231.572 288.662C236.24 287.297 238.744 287.586 243.06 289.447L402.727 493.499L376.115 506.467Z" fill="white"/>
</g>
</g>
<defs>
<clipPath id="clip0_1_6">
<rect width="501" height="501" fill="white"/>
</clipPath>
</defs>
</svg>
