<svg width="501" height="501" viewBox="0 0 501 501" fill="none" xmlns="http://www.w3.org/2000/svg">
<g clip-path="url(#clip0_1_6)">
<mask id="mask0_1_6" style="mask-type:alpha" maskUnits="userSpaceOnUse" x="0" y="0" width="501" height="501">
<circle cx="250.5" cy="250.5" r="250.5" fill="#72D8FE"/>
</mask>
<g mask="url(#mask0_1_6)">
<circle cx="250.5" cy="250.5" r="250.5" fill="#72D8FE"/>
<path d="M130.785 101.766C126.33 102.37 124.319 104.256 121 110.545V404.648C122.526 410.307 124.008 412.576 127.85 414.891H142.527C150.409 413.397 151.079 407.552 151.334 395.869L152.312 185.168V107.618C150.338 103.707 148.58 102.49 144.484 101.766H130.785Z" fill="white" stroke="white" stroke-width="10"/>
<path d="M174.394 270.724C174.401 270.697 174.406 270.696 174.411 270.719C176.446 269.296 359.66 84.3882 359.66 84.3882C367.092 79.3539 370.923 77.9546 376.385 81.2653L383.386 88.1013C387.23 92.5708 387.255 96.1592 381.364 105.58C381.364 105.58 253.21 232.618 172.862 313.391C173.161 296.488 174.538 271.45 174.411 270.719C174.398 270.728 174.392 270.73 174.394 270.724Z" fill="white"/>
<path d="M174.394 270.724C174.627 269.847 173.17 295.95 172.862 313.391C253.21 232.618 381.364 105.58 381.364 105.58C387.255 96.1592 387.23 92.5708 383.386 88.1013L376.385 81.2653C370.923 77.9546 367.092 79.3539 359.66 84.3882C359.66 84.3882 174.16 271.602 174.394 270.724Z" stroke="white" stroke-width="10"/>
<path d="M376.115 506.467L221.03 311.168C218.078 308.151 217.507 305.847 218.851 300.404L231.572 288.662C236.24 287.297 238.744 287.586 243.06 289.447L402.727 493.499L376.115 506.467Z" fill="white"/>
<path d="M221.03 311.168L376.115 506.467L402.727 493.499L243.06 289.447M221.03 311.168L243.06 289.447M221.03 311.168C218.078 308.151 217.507 305.847 218.851 300.404L231.572 288.662C236.24 287.297 238.744 287.586 243.06 289.447" stroke="white" stroke-width="10"/>
</g>
</g>
<defs>
<clipPath id="clip0_1_6">
<rect width="501" height="501" fill="white"/>
</clipPath>
</defs>
</svg>
