<svg width="501" height="501" viewBox="0 0 501 501" fill="none" xmlns="http://www.w3.org/2000/svg">
<g clip-path="url(#clip0_3_2)">
<rect width="501" height="501" fill="#6BCAED"/>
<circle cx="279.5" cy="267.5" r="250.5" fill="#6BCAED"/>
<path d="M115.688 58.1195C111.277 58.8337 109.286 61.0624 106 68.4934V416.017C107.511 422.703 108.978 425.385 112.781 428.12H127.312C135.115 426.355 135.779 419.448 136.031 405.643L137 156.671V65.0354C135.045 60.4136 133.305 58.9755 129.25 58.1195H115.688Z" fill="white" stroke="white" stroke-width="40"/>
<path d="M200.5 227.865C200.508 227.836 200.515 227.833 200.523 227.856C202.861 226.122 380.661 46.5084 380.661 46.5084C388.093 41.4741 391.923 40.0748 397.386 43.3855L404.387 50.2215C408.231 54.691 408.256 58.2795 402.365 67.6999C402.365 67.6999 280.847 186.368 200.499 267.14C200.797 250.287 200.738 228.512 200.523 227.856C200.506 227.868 200.498 227.872 200.5 227.865Z" fill="white"/>
<path d="M200.5 227.865C200.733 226.988 200.808 249.699 200.499 267.14C280.847 186.368 402.365 67.6999 402.365 67.6999C408.256 58.2795 408.231 54.691 404.387 50.2215L397.386 43.3855C391.923 40.0748 388.093 41.4741 380.661 46.5084C380.661 46.5084 200.267 228.743 200.5 227.865Z" stroke="white" stroke-width="40"/>
<path d="M414.649 467.427L273.178 289.595L295.208 267.874L436.649 450.427C438.099 454.731 438.111 456.163 438.147 460.272L438.149 460.427C438.186 464.655 428.649 470.427 428.649 470.427C423.165 471.798 419.708 470.403 414.649 467.427Z" fill="white"/>
<path d="M414.649 467.427L273.178 289.595L295.208 267.874L436.649 450.427M414.649 467.427L436.649 450.427M414.649 467.427C419.708 470.403 423.165 471.798 428.649 470.427C428.649 470.427 438.186 464.655 438.149 460.427C438.111 456.199 438.117 454.785 436.649 450.427" stroke="white" stroke-width="40"/>
<path d="M381 458L401 482.5C406.652 486.223 410.061 487.836 416.5 490L445.5 482.5C453.757 475.234 456.879 471.005 458 463L454.5 440.5L433 412.5L381 458Z" fill="white"/>
</g>
<defs>
<clipPath id="clip0_3_2">
<rect width="501" height="501" fill="white"/>
</clipPath>
</defs>
</svg>
