<svg width="501" height="501" viewBox="0 0 501 501" fill="none" xmlns="http://www.w3.org/2000/svg">
<rect width="501" height="501" fill="#6BCAED"/>
<path d="M115.688 64C111.277 64.7141 109.286 66.9428 106 74.3738V421.897C107.511 428.584 108.978 431.265 112.781 434H127.312C135.115 432.235 135.779 425.328 136.031 411.523L137 162.551V70.9159C135.045 66.294 133.305 64.8559 129.25 64H115.688Z" fill="white" stroke="white" stroke-width="40"/>
<path d="M386.708 89.6169C386.708 89.6169 273.01 208.166 198.949 282.5L198.949 237.5L365.004 68.4254C371.951 63.8882 375.578 62.6967 380.96 66.0892L387.962 72.9252C391.834 77.3657 392 80.81 386.708 89.6169Z" fill="white" stroke="white" stroke-width="40"/>
<path d="M388.415 430.182L274.881 293.531L293.906 275.57L407.414 416.125C408.667 419.684 408.678 420.869 408.709 424.266L408.71 424.394C408.742 427.89 400.506 432.663 400.506 432.663C395.77 433.796 392.785 432.643 388.415 430.182Z" fill="white"/>
<path d="M388.415 430.182L274.881 293.531L293.906 275.57L407.414 416.125M388.415 430.182L407.414 416.125M388.415 430.182C392.785 432.643 395.77 433.796 400.506 432.663C400.506 432.663 408.742 427.89 408.71 424.394C408.678 420.898 408.683 419.728 407.414 416.125" stroke="white" stroke-width="40"/>
<path d="M356.047 423.564L374.801 446.268C379.696 449.361 384.332 451.178 389.908 452.976C403.285 455.183 408.744 452.624 417.518 446.268C425.23 440.502 429.129 433.084 429.5 426.144C429.547 417.755 428.88 413.3 425.853 406.02L407.1 382.8L356.047 423.564Z" fill="white"/>
</svg>
