<svg width="750" height="750" viewBox="0 0 750 750" fill="none" xmlns="http://www.w3.org/2000/svg">
<rect width="750" height="750" fill="#5430B9"/>
<path d="M235.688 190.233C231.277 190.947 229.286 193.176 226 200.607V548.13C227.511 554.817 228.978 557.498 232.781 560.233H247.312C255.115 558.468 255.779 551.562 256.031 537.757L257 288.785V197.149C255.045 192.527 253.305 191.089 249.25 190.233H235.688Z" fill="white" stroke="white" stroke-width="40"/>
<path d="M506.708 215.85C506.708 215.85 393.01 334.399 318.949 408.733L318.949 363.733L485.004 194.659C491.951 190.121 495.578 188.93 500.96 192.322L507.962 199.158C511.834 203.599 512 207.043 506.708 215.85Z" fill="white" stroke="white" stroke-width="40"/>
<path d="M508.415 556.415L394.881 419.764L413.906 401.803L527.414 542.358C528.667 545.917 528.678 547.102 528.709 550.499L528.71 550.627C528.742 554.124 520.506 558.896 520.506 558.896C515.77 560.029 512.785 558.876 508.415 556.415Z" fill="white"/>
<path d="M508.415 556.415L394.881 419.764L413.906 401.803L527.414 542.358M508.415 556.415L527.414 542.358M508.415 556.415C512.785 558.876 515.77 560.029 520.506 558.896C520.506 558.896 528.742 554.124 528.71 550.627C528.678 547.131 528.683 545.962 527.414 542.358" stroke="white" stroke-width="40"/>
<path d="M476.047 549.797L494.801 572.501C499.696 575.594 504.332 577.411 509.908 579.209C523.285 581.416 528.744 578.857 537.518 572.501C545.23 566.735 549.129 559.317 549.5 552.377C549.547 543.988 548.88 539.533 545.853 532.253L527.1 509.033L476.047 549.797Z" fill="white"/>
</svg>
