<svg width="501" height="501" viewBox="0 0 501 501" fill="none" xmlns="http://www.w3.org/2000/svg">
<rect width="501" height="501" fill="#6BCAED"/>
<path d="M115.688 64C111.277 64.7141 109.286 66.9428 106 74.3738V421.897C107.511 428.584 108.978 431.265 112.781 434H127.312C135.115 432.235 135.779 425.328 136.031 411.523L137 162.551V70.9159C135.045 66.294 133.305 64.8559 129.25 64H115.688Z" fill="white" stroke="white" stroke-width="40"/>
<path d="M386.708 89.6169C386.708 89.6169 273.01 208.166 198.949 282.5L198.949 237.5L365.004 68.4254C371.951 63.8882 375.578 62.6967 380.96 66.0892L387.962 72.9252C391.834 77.3657 392 80.81 386.708 89.6169Z" fill="white" stroke="white" stroke-width="40"/>
<path d="M390.067 430.913L272.806 288.425L291.066 271.021L408.302 417.292C409.504 420.741 409.515 421.888 409.544 425.18L409.546 425.305C409.576 428.693 401.671 433.317 401.671 433.317C397.126 434.415 394.26 433.298 390.067 430.913Z" fill="white"/>
<path d="M390.067 430.913L272.806 288.425L291.066 271.021L408.302 417.292M390.067 430.913L408.302 417.292M390.067 430.913C394.26 433.298 397.126 434.415 401.671 433.317C401.671 433.317 409.576 428.693 409.546 425.305C409.515 421.917 409.519 420.784 408.302 417.292" stroke="white" stroke-width="40"/>
<path d="M359 424.5L377 446.5C381.698 449.497 386.148 451.258 391.5 453C404.339 455.139 409.579 452.659 418 446.5C425.402 440.913 429.144 433.725 429.5 427C429.545 418.872 428.905 414.555 426 407.5L408 385L359 424.5Z" fill="white"/>
</svg>
