<svg width="501" height="501" viewBox="0 0 501 501" fill="none" xmlns="http://www.w3.org/2000/svg">
<g clip-path="url(#clip0_1_6)">
<mask id="mask0_1_6" style="mask-type:alpha" maskUnits="userSpaceOnUse" x="0" y="0" width="501" height="501">
<circle cx="250.5" cy="250.5" r="250.5" fill="#72D8FE"/>
</mask>
<g mask="url(#mask0_1_6)">
<circle cx="250.5" cy="250.5" r="250.5" fill="#72D8FE"/>
<path d="M130.785 101.766C126.33 102.37 124.319 104.256 121 110.545V404.648C122.526 410.307 124.008 412.576 127.85 414.891H142.527C150.409 413.397 151.079 407.552 151.334 395.869L152.312 185.168V107.618C150.338 103.707 148.58 102.49 144.484 101.766H130.785Z" fill="white" stroke="white" stroke-width="10"/>
<path d="M179.5 265.746C179.508 265.716 179.515 265.713 179.523 265.736C181.861 264.002 359.661 84.3889 359.661 84.3889C367.093 79.3546 370.923 77.9553 376.386 81.266L383.387 88.102C387.231 92.5715 387.256 96.1599 381.365 105.58C381.365 105.58 259.847 224.248 179.499 305.021C179.797 288.168 179.738 266.393 179.523 265.736C179.506 265.749 179.498 265.752 179.5 265.746Z" fill="white"/>
<path d="M179.5 265.746C179.733 264.868 179.808 287.58 179.499 305.021C259.847 224.248 381.365 105.58 381.365 105.58C387.256 96.1599 387.231 92.5715 383.387 88.102L376.386 81.266C370.923 77.9553 367.093 79.3546 359.661 84.3889C359.661 84.3889 179.267 266.623 179.5 265.746Z" stroke="white" stroke-width="10"/>
<path d="M376.115 506.467L221.03 311.168L243.06 289.447L402.727 493.499L376.115 506.467Z" fill="white" stroke="white" stroke-width="10"/>
</g>
</g>
<defs>
<clipPath id="clip0_1_6">
<rect width="501" height="501" fill="white"/>
</clipPath>
</defs>
</svg>
