<svg width="501" height="501" viewBox="0 0 501 501" fill="none" xmlns="http://www.w3.org/2000/svg">
<g clip-path="url(#clip0_1_6)">
<rect width="501" height="501" fill="#72D8FE"/>
<mask id="mask0_1_6" style="mask-type:alpha" maskUnits="userSpaceOnUse" x="0" y="0" width="501" height="501">
<circle cx="250.5" cy="250.5" r="250.5" fill="#72D8FE"/>
</mask>
<g mask="url(#mask0_1_6)">
<circle cx="250.5" cy="250.5" r="250.5" fill="#72D8FE"/>
<path d="M130.785 101.766C126.33 102.37 124.319 104.256 121 110.545V404.648C122.526 410.307 124.008 412.576 127.85 414.891H142.527C150.409 413.397 151.079 407.552 151.334 395.869L152.312 185.168V107.618C150.338 103.707 148.58 102.49 144.484 101.766H130.785Z" fill="white" stroke="white" stroke-width="10"/>
<path d="M174.5 270.746C174.508 270.716 174.515 270.713 174.523 270.736C176.861 269.002 354.661 89.3889 354.661 89.3889C362.093 84.3546 365.923 82.9553 371.386 86.266L378.387 93.102C382.231 97.5715 382.256 101.16 376.365 110.58C376.365 110.58 254.847 229.248 174.499 310.021C174.797 293.168 174.738 271.393 174.523 270.736C174.506 270.749 174.498 270.752 174.5 270.746Z" fill="white"/>
<path d="M174.5 270.746C174.733 269.868 174.808 292.58 174.499 310.021C254.847 229.248 376.365 110.58 376.365 110.58C382.256 101.16 382.231 97.5715 378.387 93.102L371.386 86.266C365.923 82.9553 362.093 84.3546 354.661 89.3889C354.661 89.3889 174.267 271.623 174.5 270.746Z" stroke="white" stroke-width="10"/>
<path d="M369.115 500.467L214.03 305.168L236.06 283.447L395.727 487.499L369.115 500.467Z" fill="white" stroke="white" stroke-width="10"/>
</g>
</g>
<defs>
<clipPath id="clip0_1_6">
<rect width="501" height="501" fill="white"/>
</clipPath>
</defs>
</svg>
