<svg width="501" height="501" viewBox="0 0 501 501" fill="none" xmlns="http://www.w3.org/2000/svg">
<g clip-path="url(#clip0_1_6)">
<path d="M234.094 0.134821C233.016 0.232754 229.588 0.575519 226.503 0.820351C155.344 7.23495 88.6912 45.6246 46.476 104.629C22.9686 137.437 7.93372 174.651 2.25279 214.069C0.244868 227.829 0 231.893 0 250.549C0 269.205 0.244868 273.269 2.25279 287.029C15.8674 381.093 82.8144 460.125 173.611 489.407C189.871 494.647 207.011 498.221 226.503 500.376C234.094 501.208 266.906 501.208 274.497 500.376C308.142 496.654 336.645 488.33 364.755 473.983C369.065 471.779 369.898 471.192 369.31 470.702C368.918 470.408 350.553 445.778 328.515 416.007L288.455 361.899L238.257 287.617C210.635 246.779 187.912 213.384 187.716 213.384C187.52 213.335 187.324 246.338 187.226 286.637C187.079 357.198 187.03 360.038 186.149 361.703C184.875 364.102 183.896 365.081 181.839 366.159C180.272 366.942 178.901 367.089 171.506 367.089H163.033L160.78 365.669C159.311 364.739 158.234 363.515 157.499 362.095L156.471 359.891L156.569 261.713L156.716 163.487L158.234 161.577C159.017 160.549 160.682 159.227 161.858 158.59C163.866 157.611 164.649 157.513 173.122 157.513C183.112 157.513 184.777 157.905 187.373 160.745C188.108 161.528 215.288 202.464 247.806 251.773C280.325 301.082 324.793 368.411 346.635 401.464L386.304 461.545L388.312 460.223C406.089 448.667 424.895 432.214 439.783 415.076C471.469 378.694 491.891 334.331 498.747 287.029C500.755 273.269 501 269.205 501 250.549C501 231.893 500.755 227.829 498.747 214.069C485.133 120.005 418.186 40.9728 327.389 11.6909C311.374 6.50045 294.331 2.92591 275.232 0.771384C270.53 0.28172 238.159 -0.25691 234.094 0.134821ZM336.645 151.637C338.995 152.812 340.905 155.065 341.591 157.415C341.983 158.688 342.081 185.913 341.983 247.268L341.836 335.31L326.311 311.512L310.738 287.715V223.715C310.738 182.339 310.933 159.08 311.227 157.954C312.011 155.211 313.725 153.057 316.076 151.784C318.084 150.756 318.818 150.658 326.507 150.658C333.755 150.658 335.028 150.755 336.645 151.637Z" fill="#72D8FE"/>
<mask id="mask0_1_6" style="mask-type:alpha" maskUnits="userSpaceOnUse" x="0" y="0" width="501" height="501">
<circle cx="250.5" cy="250.5" r="250.5" fill="#72D8FE"/>
</mask>
<g mask="url(#mask0_1_6)">
<circle cx="250.5" cy="250.5" r="250.5" fill="#72D8FE"/>
<path d="M168.305 101.766C163.85 102.37 161.839 104.256 158.52 110.545V404.648C160.046 410.307 161.527 412.576 165.369 414.891H180.047C187.928 413.397 188.599 407.552 188.854 395.869L189.832 185.168V107.618C187.857 103.707 186.099 102.49 182.004 101.766H168.305Z" fill="white"/>
<path d="M211.685 270.958C211.691 270.936 211.696 270.931 211.7 270.943L395.053 86.5658C402.422 81.5965 406.226 80.2245 411.678 83.5459L418.679 90.3818C422.527 94.8475 422.57 98.4171 416.757 107.757C416.757 107.757 289.906 233.461 210.381 313.391C210.592 296.49 211.846 271.416 211.7 270.943L211.685 270.958Z" fill="white"/>
<path d="M413.634 506.467L258.549 311.168C255.597 308.151 255.027 305.847 256.371 300.404L269.092 288.662C273.76 287.297 276.263 287.586 280.579 289.447L440.246 493.499L413.634 506.467Z" fill="white"/>
</g>
</g>
<defs>
<clipPath id="clip0_1_6">
<rect width="501" height="501" fill="white"/>
</clipPath>
</defs>
</svg>
